# AST/ASF file generated using VICON BodyLanguage
# -----------------------------------------------
:version 1.10
:name VICON
:units
  mass 1.0
  length 0.45
  angle deg
:documentation
   .ast/.asf automatically generated from VICON data using
   VICON BodyBuilder and BodyLanguage model FoxedUp or BRILLIANT.MOD
:root
   order TX TY TZ RX RY RZ
   axis XYZ
   position 0 0 0  
   orientation 0 0 0 
:bonedata
  begin
     id 1 
     name lhipjoint
     direction 0.78388 -0.462562 0.414208 
     length 3.01181 
     axis 0 0 0  XYZ
  end
  begin
     id 2 
     name lfemur
     direction 0.34202 -0.939693 0  
     length 6.04673  
     axis 0 0 20  XYZ
    dof rx ry rz
    limits (-160.0 20.0)
           (-70.0 70.0)
           (-60.0 70.0)
  end
  begin
     id 3 
     name ltibia
     direction 0.34202 -0.939693 0   
     length 7.211   
     axis 0 0 20   XYZ
    dof rx
    limits (-10.0 170.0)
  end
  begin
     id 4 
     name lfoot
     direction 0.121887 -0.334882 0.934344   
     length 2.13567   
     axis -90 7.62852e-016 20   XYZ
    dof rx rz
    limits (-45.0 90.0)
           (-70.0 20.0)
  end
  begin
     id 5 
     name ltoes
     direction 1.53555e-011 -4.2179e-011 1   
     length 1.05957   
     axis -90 7.62852e-016 20   XYZ
    dof rx
    limits (-90.0 20.0)
  end
  begin
     id 6 
     name rhipjoint
     direction -0.769387 -0.475875 0.426129   
     length 2.92756  
     axis 0 0 0  XYZ 
  end
  begin
     id 7 
     name rfemur
     direction -0.34202 -0.939693 0   
     length 6.35468   
     axis 0 0 -20   XYZ
    dof rx ry rz
    limits (-160.0 20.0)
           (-70.0 70.0)
           (-70.0 60.0)
  end
  begin
     id 8 
     name rtibia
     direction -0.34202 -0.939693 0   
     length 7.37886   
     axis 0 0 -20   XYZ
    dof rx
    limits (-10.0 170.0)
 end
 begin
     id 9 
     name rfoot
     direction -0.101763 -0.279592 0.954711   
     length 2.21478  
     axis -90 -7.62852e-016 -20   XYZ
    dof rx rz
    limits (-45.0 90.0)
           (-20.0 70.0)
  end
  begin
     id 10 
     name rtoes
     direction -1.53494e-011 -4.21851e-011 1   
     length 1.10506   
     axis -90 -7.62852e-016 -20   XYZ
    dof rx
    limits (-90.0 20.0)
  end
  begin
     id 11 
     name lowerback
     direction 0.00747405 0.999267 0.0375481   
     length 2.13259   
     axis 0 0 0   XYZ
    dof rx ry rz
    limits (-20.0 45.0)
           (-30.0 30.0)
           (-30.0 30.0)
  end
  begin
     id 12 
     name upperback
     direction 0.00661626 0.996177 0.0871029   
     length 2.10528   
     axis 0 0 0   XYZ
    dof rx ry rz
    limits (-20.0 45.0)
           (-30.0 30.0)
           (-30.0 30.0)
  end
  begin
     id 13 
     name thorax
     direction 0.00320659 0.997679 0.0680167   
     length 2.11338   
     axis 0 0 0   XYZ
    dof rx ry rz
    limits (-20.0 45.0)
           (-30.0 30.0)
           (-30.0 30.0)
  end
  begin
     id 14 
     name lowerneck
     direction 0.0374841 0.973033 0.227602   
     length 1.42765   
     axis 0 0 0   XYZ
    dof rx ry rz
    limits (-20.0 45.0)
           (-30.0 30.0)
           (-30.0 30.0)
  end
  begin
     id 15 
     name upperneck
     direction 0.00481585 0.989155 -0.146795   
     length 1.47593   
     axis 0 0 0   XYZ
    dof rx ry rz
    limits (-20.0 45.0)
           (-30.0 30.0)
           (-30.0 30.0)
  end
  begin
     id 16
     name head
     direction -0.00292522 0.997206 -0.0746423  
     length 1.48116  
     axis 0 0 0   XYZ
    dof rx ry rz
    limits (-20.0 45.0)
           (-30.0 30.0)
           (-30.0 30.0)
  end
  begin
     id 17 
     name lclavicle
     direction 0.951444 0.305606 0.0368784  
     length 3.01855  
     axis 0 0 0   XYZ
    dof ry rz
    limits (-20.0 10.0)
           (0.0 20.0)
  end
  begin
     id 18 
     name lhumerus
     direction 1 -4.48977e-011 2.61664e-027   
     length 5.52731   
     axis 180 -30 -90   XYZ
    dof rx ry rz
    limits (-60.0 90.0)
           (-90.0 90.0)
           (-90.0 90.0)
  end
  begin
     id 19
     name lradius
     direction 1 -4.48944e-011 8.22157e-027   
     length 3.11059   
     axis 180 -30 -90   XYZ
    dof rx
    limits (-10.0 170.0)
  end
  begin
     id 20
     name lwrist
     direction 1 -4.48976e-011 1.5779e-026   
     length 1.5553   
     axis -1.15221e-014 90 90   XYZ
    dof ry
    limits (-180.0 0.0)
 end
  begin
     id 21 
     name lhand
     direction 1 -4.49025e-011 3.1558e-026   
     length 0.419626   
     axis -2.01367e-014 90 90   XYZ
    dof rx rz
    limits (-90.0 90.0)
           (-45.0 45.0)
  end
  begin
     id 22 
     name lfingers
     direction 1 -4.4904e-011 6.31161e-026   
     length 0.338313   
     axis -4.02734e-014 90 90   XYZ
    dof rx
    limits (0.0 90.0)
  end
  begin
     id 23
     name lthumb
     direction 0.707107 -6.35004e-011 0.707107   
     length 0.485752   
     axis -90 45 2.85299e-015   XYZ
    dof rx rz
    limits (-45.0 45.0)
           (-45.0 45.0)
  end
  begin
     id 24 
     name rclavicle
     direction -0.968876 0.223791 0.105816   
     length 3.04177  
     axis 0 0 0   XYZ 
    dof ry rz
    limits (-10.0 20.0)
           (-20.0 0.0)
  end
  begin
     id 25 
     name rhumerus
     direction -1 -4.48962e-011 -1.01384e-027  
     length 5.25396   
     axis 180 30 90   XYZ
    dof rx ry rz
    limits (-90.0 60.0)
           (-90.0 90.0)
           (-90.0 90.0)
  end
  begin
     id 26 
     name rradius
     direction -1 -4.48955e-011 8.88542e-027   
     length 3.10567   
     axis 180 30 90   XYZ
    dof rx
    limits (-10.0 170.0)
  end
  begin
     id 27 
     name rwrist
     direction -1 -4.48994e-011 1.5779e-026   
     length 1.55283   
     axis -1.15221e-014 -90 -90   XYZ
    dof ry
    limits (-180.0 0.0)
  end
  begin
     id 28
     name rhand
     direction -1 -4.48891e-011 3.1558e-026   
     length 0.498676   
     axis -2.01367e-014 -90 -90   XYZ
    dof rx rz
    limits (-90.0 90.0)
           (-45.0 45.0)
  end
  begin
     id 29
     name rfingers
     direction -1 -4.48972e-011 6.31161e-026   
     length 0.402045   
     axis -4.02734e-014 -90 -90   XYZ
    dof rx
    limits (0.0 90.0)
  end
  begin
     id 30
     name rthumb
     direction -0.707107 -6.34849e-011 0.707107   
     length 0.577259   
     axis -90 -45 -2.85299e-015   XYZ
    dof rx rz
    limits (-45.0 45.0)
           (-45.0 45.0)
  end
:hierarchy
  begin
    root lhipjoint rhipjoint lowerback
    lhipjoint lfemur
    lfemur ltibia
    ltibia lfoot
    lfoot ltoes
    rhipjoint rfemur
    rfemur rtibia
    rtibia rfoot
    rfoot rtoes
    lowerback upperback
    upperback thorax
    thorax lowerneck lclavicle rclavicle
    lowerneck upperneck
    upperneck head
    lclavicle lhumerus
    lhumerus lradius
    lradius lwrist
    lwrist lhand lthumb
    lhand lfingers
    rclavicle rhumerus
    rhumerus rradius
    rradius rwrist
    rwrist rhand rthumb
    rhand rfingers
  end

#!OML:ASF H:\Pregnant\Project 1\Capture day 1\Session 1\femalepreg.ASF
:FULLY-SPECIFIED
:DEGREES
36
root 20.1212 15.2759 18.6284 164.279 -83.8135 -146.347
lowerback -15.2621 0.579574 3.64541
upperback -5.95261 -0.14451 1.18489
thorax 2.24827 -0.251183 -0.847946
lowerneck -18.0663 1.28752 3.81086
upperneck 26.7013 -0.323783 1.7018
head 11.7569 0.300518 -0.0982908
rclavicle -1.94312e-014 1.91827e-014
rhumerus -36.7193 2.97742 -81.3808
rradius 35.5556
rwrist -9.22359
rhand -19.7833 -15.9122
rfingers 7.12502
rthumb 6.54902 -45.7909
lclavicle -1.94312e-014 1.91827e-014
lhumerus -41.2407 -11.0744 89.6789
lradius 27.9246
lwrist 44.4294
lhand -33.3946 -6.68284
lfingers 7.12502
lthumb -6.59513 23.1945
rfemur -41.4628 28.5602 11.2313
rtibia 39.641
rfoot -19.056 -1.3111
rtoes -8.46129
lfemur -43.5172 -35.099 8.83831
ltibia 39.9901
lfoot -18.1257 -14.7162
ltoes -17.8834
37
root 20.1055 15.2597 18.7118 169.578 -82.7198 -151.699
lowerback -15.224 0.551547 3.65906
upperback -5.94993 -0.188603 1.22819
thorax 2.22926 -0.275451 -0.817697
lowerneck -18.0113 1.14927 3.65818
upperneck 26.9331 -0.544512 1.83928
head 11.8343 0.198125 -0.0565694
rclavicle -1.44523e-014 2.18663e-015
rhumerus -36.6256 3.23608 -81.4129
rradius 35.684
rwrist -8.65659
rhand -19.0967 -15.7724
rfingers 7.12502
rthumb 7.21178 -45.6295
lclavicle -1.44523e-014 2.18663e-015
lhumerus -41.3444 -11.4417 89.828
lradius 27.8253
lwrist 44.3951
lhand -33.4553 -6.59789
lfingers 7.12502
lthumb -6.65377 23.2776
rfemur -41.8704 29.1002 10.6303
rtibia 39.8174
rfoot -19.2408 -0.829832
rtoes -8.81936
lfemur -42.7864 -35.7837 8.99253
ltibia 39.0097
lfoot -18.711 -15.7408
ltoes -18.1478
38
root 20.0911 15.2443 18.7969 173.46 -81.5839 -155.623
lowerback -15.1553 0.521697 3.7119
upperback -5.96773 -0.237931 1.23715
thorax 2.1718 -0.304244 -0.846144
lowerneck -17.9311 1.01227 3.54812
upperneck 27.1592 -0.782484 1.98813
head 11.9057 0.0928141 -0.020619
rclavicle -1.61885e-014 -4.57205e-014
rhumerus -36.5714 3.49957 -81.5194
rradius 35.825
rwrist -8.33817
rhand -18.7267 -15.6227
rfingers 7.12502
rthumb 7.56893 -45.4673
lclavicle -1.61885e-014 -4.57205e-014
lhumerus -41.4797 -11.878 89.9495
lradius 27.7414
lwrist 44.3638
lhand -33.5084 -6.49599
lfingers 7.12502
lthumb -6.70499 23.3779
rfemur -42.3029 29.6356 10.0009
rtibia 39.9622
rfoot -19.4063 -0.340363
rtoes -9.17509
lfemur -41.9621 -36.1557 8.87736
ltibia 38.1351
lfoot -19.2836 -16.6379
ltoes -18.202
39
root 20.0784 15.2303 18.8837 176.398 -80.4234 -158.592
lowerback -15.0733 0.484553 3.76735
upperback -5.98977 -0.296291 1.24203
thorax 2.10232 -0.337929 -0.881621
lowerneck -17.8434 0.871544 3.46036
upperneck 27.3715 -1.03116 2.12714
head 11.9711 -0.0167875 0.0062176
rclavicle -3.7912e-014 1.80894e-014
rhumerus -36.5309 3.79394 -81.6641
rradius 35.9808
rwrist -8.33228
rhand -18.7233 -15.4476
rfingers 7.12502
rthumb 7.57221 -45.2921
lclavicle -3.7912e-014 1.80894e-014
lhumerus -41.5871 -12.2836 90.0419
lradius 27.6245
lwrist 44.241
lhand -33.566 -6.39303
lfingers 7.12502
lthumb -6.76064 23.479
rfemur -42.7578 30.1677 9.34186
rtibia 40.0663
rfoot -19.5452 0.153191
rtoes -9.53218
lfemur -41.037 -36.19 8.49486
ltibia 37.3538
lfoot -19.8307 -17.333
ltoes -18.1728
40
root 20.0671 15.2182 18.9723 178.75 -79.2453 -160.962
lowerback -14.9888 0.441776 3.80786
upperback -6.01192 -0.359823 1.24916
thorax 2.03116 -0.374068 -0.906964
lowerneck -17.7654 0.718439 3.35343
upperneck 27.5757 -1.29545 2.27271
head 12.0363 -0.134681 0.0363993
rclavicle 1.09642e-014 5.76476e-015
rhumerus -36.4957 4.11784 -81.8195
rradius 36.145
rwrist -8.5681
rhand -19.0317 -15.2649
rfingers 7.12502
rthumb 7.27455 -45.1199
lclavicle 1.09642e-014 5.76476e-015
lhumerus -41.6549 -12.6473 90.1201
lradius 27.4716
lwrist 44.0248
lhand -33.5933 -6.29248
lfingers 7.12502
lthumb -6.78698 23.5787
rfemur -43.2371 30.6967 8.63889
rtibia 40.1252
rfoot -19.6561 0.652204
rtoes -9.89472
lfemur -40.0215 -35.9091 7.86723
ltibia 36.6384
lfoot -20.3583 -17.7483
ltoes -18.231
41
root 20.0569 15.2085 19.0624 180.74 -78.0544 -162.954
lowerback -14.9233 0.386576 3.79563
upperback -6.01999 -0.433821 1.27506
thorax 1.98521 -0.413745 -0.884685
lowerneck -17.711 0.554039 3.21699
upperneck 27.765 -1.56651 2.41476
head 12.1013 -0.258845 0.069334
rclavicle 9.67522e-015 -1.05356e-014
rhumerus -36.4269 4.42904 -81.9248
rradius 36.2992
rwrist -8.891
rhand -19.4386 -15.0901
rfingers 7.12502
rthumb 6.88173 -44.9582
lclavicle 9.67522e-015 -1.05356e-014
lhumerus -41.6679 -12.9721 90.2116
lradius 27.2971
lwrist 43.7483
lhand -33.595 -6.20351
lfingers 7.12502
lthumb -6.78858 23.6677
rfemur -43.7408 31.2193 7.88238
rtibia 40.1362
rfoot -19.7366 1.15187
rtoes -10.2928
lfemur -38.931 -35.3399 7.02645
ltibia 35.9496
lfoot -20.8763 -17.9011
ltoes -18.4972
42
root 20.0477 15.2014 19.1534 182.487 -76.8536 -164.693
lowerback -14.8822 0.317105 3.71543
upperback -6.0071 -0.518868 1.32395
thorax 1.97495 -0.456526 -0.802046
lowerneck -17.6931 0.379215 3.03423
upperneck 27.9438 -1.84084 2.56261
head 12.1709 -0.387887 0.111907
rclavicle -1.06381e-014 4.77083e-015
rhumerus -36.3059 4.68656 -81.9445
rradius 36.4329
rwrist -9.17403
rhand -19.8008 -14.9578
rfingers 7.12502
rthumb 6.53214 -44.8371
lclavicle -1.06381e-014 4.77083e-015
lhumerus -41.6145 -13.2455 90.3191
lradius 27.1025
lwrist 43.421
lhand -33.5456 -6.12875
lfingers 7.12502
lthumb -6.74094 23.7439
rfemur -44.2668 31.7426 7.06511
rtibia 40.1001
rfoot -19.7861 1.64383
rtoes -10.7232
lfemur -37.784 -34.535 6.01956
ltibia 35.2479
lfoot -21.3726 -17.8414
ltoes -18.8078
43
root 20.0393 15.1974 19.2452 184.099 -75.6378 -166.28
lowerback -14.8809 0.226682 3.55082
upperback -5.96832 -0.622462 1.39975
thorax 2.01425 -0.505649 -0.647205
lowerneck -17.7171 0.204096 2.80378
upperneck 28.109 -2.10307 2.71799
head 12.2453 -0.514621 0.167367
rclavicle 7.20284e-015 3.08116e-015
rhumerus -36.1128 4.9103 -81.8723
rradius 36.5379
rwrist -9.35737
rhand -20.0738 -14.8923
rfingers 7.12502
rthumb 6.2686 -44.7795
lclavicle 7.20284e-015 3.08116e-015
lhumerus -41.5061 -13.498 90.4635
lradius 26.926
lwrist 43.1156
lhand -33.4662 -6.05013
lfingers 7.12502
lthumb -6.66426 23.825
rfemur -44.8268 32.2663 6.1714
rtibia 40.0161
rfoot -19.8038 2.13033
rtoes -11.167
lfemur -36.6074 -33.5376 4.88771
ltibia 34.5048
lfoot -21.8333 -17.6354
ltoes -19.0417
44
root 20.0313 15.1968 19.337 185.643 -74.4164 -167.79
lowerback -14.907 0.112846 3.28507
upperback -5.91136 -0.744785 1.50412
thorax 2.08931 -0.561655 -0.409058
lowerneck -17.7691 0.0254906 2.49984
upperneck 28.2581 -2.34985 2.88638
head 12.321 -0.639804 0.24272
rclavicle -6.56921e-015 -1.98785e-015
rhumerus -35.8579 5.06566 -81.6816
rradius 36.6124
rwrist -9.365
rhand -20.1548 -14.9336
rfingers 7.12502
rthumb 6.1904 -44.8232
lclavicle -6.56921e-015 -1.98785e-015
lhumerus -41.3591 -13.723 90.6538
lradius 26.7692
lwrist 42.8177
lhand -33.3274 -5.9624
lfingers 7.12502
lthumb -6.53029 23.9169
rfemur -45.4129 32.7843 5.19217
rtibia 39.886
rfoot -19.7921 2.60362
rtoes -11.6413
lfemur -35.427 -32.4203 3.66431
ltibia 33.7064
lfoot -22.2424 -17.349
ltoes -19.1119
45
root 20.0236 15.1995 19.4292 187.151 -73.1826 -169.246
lowerback -14.9648 -0.00587965 2.95499
upperback -5.84779 -0.865007 1.59537
thorax 2.19045 -0.615795 -0.14862
lowerneck -17.8289 -0.155926 2.18938
upperneck 28.3903 -2.60111 3.06559
head 12.3935 -0.766139 0.322564
rclavicle 8.43592e-015 1.78906e-015
rhumerus -35.5838 5.15319 -81.4615
rradius 36.669
rwrist -9.40433
rhand -20.2993 -15.0129
rfingers 7.12502
rthumb 6.05086 -44.9065
lclavicle 8.43592e-015 1.78906e-015
lhumerus -41.212 -14.0176 90.8687
lradius 26.66
lwrist 42.5709
lhand -33.1537 -5.84612
lfingers 7.12502
lthumb -6.36262 24.0383
rfemur -46.0419 33.2847 4.11658
rtibia 39.71
rfoot -19.7508 3.07672
rtoes -12.125
lfemur -34.2799 -31.2405 2.3907
ltibia 32.8559
lfoot -22.5793 -17.0217
ltoes -18.9806
46
root 20.0159 15.2056 19.5219 188.678 -71.9391 -170.702
lowerback -15.0452 -0.125187 2.56461
upperback -5.79125 -0.976929 1.66069
thorax 2.29835 -0.66601 0.119643
lowerneck -17.8816 -0.346495 1.85597
upperneck 28.5074 -2.86497 3.26841
head 12.4613 -0.897738 0.413273
rclavicle -9.28076e-015 5.56597e-015
rhumerus -35.3194 5.16725 -81.2196
rradius 36.7168
rwrist -9.47588
rhand -20.4764 -15.1262
rfingers 7.12502
rthumb 5.87985 -45.0246
lclavicle -9.28076e-015 5.56597e-015
lhumerus -41.1005 -14.4199 91.1192
lradius 26.6209
lwrist 42.3904
lhand -32.9293 -5.6979
lfingers 7.12502
lthumb -6.14598 24.193
rfemur -46.7201 33.7581 2.92467
rtibia 39.4919
rfoot -19.6811 3.54974
rtoes -12.5979
lfemur -33.2024 -30.0714 1.08612
ltibia 31.9715
lfoot -22.8274 -16.6671
ltoes -18.6763
47
root 20.0083 15.2148 19.6155 190.22 -70.685 -172.148
lowerback -15.1478 -0.239716 2.12936
upperback -5.74902 -1.07488 1.68636
thorax 2.40457 -0.710155 0.373743
lowerneck -17.9136 -0.544729 1.53584
upperneck 28.609 -3.14854 3.48566
head 12.521 -1.03552 0.504046
rclavicle 3.52159e-014 2.78299e-015
rhumerus -35.0791 5.08917 -80.9764
rradius 36.7574
rwrist -9.59604
rhand -20.6769 -15.2881
rfingers 7.12502
rthumb 5.68632 -45.1918
lclavicle 3.52159e-014 2.78299e-015
lhumerus -41.0026 -14.8755 91.3504
lradius 26.608
lwrist 42.2098
lhand -32.644 -5.53752
lfingers 7.12502
lthumb -5.8705 24.3612
rfemur -47.4571 34.1927 1.61707
rtibia 39.2405
rfoot -19.5856 4.02936
rtoes -13.0374
lfemur -32.2287 -28.9689 -0.218646
ltibia 31.0796
lfoot -22.9693 -16.2823
ltoes -18.3251
